<svg xmlns="http://www.w3.org/2000/svg" viewBox="0 0 1024 1024"><defs><linearGradient id="g" x1="0" y1="0" x2="0" y2=".7"><stop offset="0" stop-color="#8E6CFF"/><stop offset="1" stop-color="#4C2FD6"/></linearGradient></defs><rect width="1024" height="1024" rx="230" fill="url(#g)"/><rect x="65" y="65" width="894" height="894" rx="225" fill="#FCFDFF" fill-opacity=".93"/><g transform="translate(272 272)"><g stroke="#5B3DF5" stroke-width="40" stroke-linecap="round" stroke-linejoin="round" fill="none"><path d="M26 150V66a40 40 0 0 1 40-40h84M330 26h84a40 40 0 0 1 40 40v84M26 330v84a40 40 0 0 0 40 40h84M330 454h84a40 40 0 0 0 40-40v-84"/></g><circle cx="240" cy="196" r="58" fill="#5B3DF5"/><path d="M128 388c0-58 50-102 112-102s112 44 112 102z" fill="#5B3DF5"/></g></svg>
